<svg width="0" height="0"><symbol xmlns="http://www.w3.org/2000/svg" id="envelope" fill="none" viewBox="0 0 15 16"><path fill="currentColor" d="M0 3a1.5 1.5 0 0 1 1.5-1.5h12A1.5 1.5 0 0 1 15 3v1.208L7.5 8.426 0 4.208V3Z"/><path fill="currentColor" d="M0 5.355V13a1.5 1.5 0 0 0 1.5 1.5h12A1.5 1.5 0 0 0 15 13V5.355L7.5 9.574 0 5.354Z"/></symbol><symbol xmlns="http://www.w3.org/2000/svg" id="password" fill="none" viewBox="0 0 15 16"><path fill="currentColor" d="M11 11.5h-1v-1h1v1Zm-3 0h1v-1H8v1Zm5 0h-1v-1h1v1Z"/><path fill="currentColor" fill-rule="evenodd" d="M3 6.5V4a3.5 3.5 0 1 1 7 0v2.5h1.5A1.5 1.5 0 0 1 13 8v.55a2.5 2.5 0 0 1 0 4.9V14a1.5 1.5 0 0 1-1.5 1.5h-10A1.5 1.5 0 0 1 0 14V8a1.5 1.5 0 0 1 1.5-1.5H3ZM4 4a2.5 2.5 0 0 1 5 0v2.5H4V4Zm4.5 5.5a1.5 1.5 0 0 0 0 3h4a1.5 1.5 0 0 0 0-3h-4Z" clip-rule="evenodd"/></symbol></svg>