<svg width="254" height="80" viewBox="0 0 254 80" fill="none" xmlns="http://www.w3.org/2000/svg">
<rect width="80" height="80" rx="16" fill="url(#paint0_linear_291_18618)"/>
<path d="M21.6 49.9726V36C33.0758 36 39.2919 45.6791 42.4 50.5187C42.4 55.3583 32.5903 63.3335 28 60.0149C23.7726 56.9588 22.3091 53.2369 21.7306 51.0474C21.6379 50.6966 21.6 50.3355 21.6 49.9726Z" fill="url(#paint1_linear_291_18618)"/>
<path d="M58.4 51.2941V16C46.7927 16 41.5879 25.8824 40.4363 30.8235V49.1765C40.4363 56.5177 32.1454 59.2941 28 60C28 60.4 31.4545 64 40.4363 64C49.4182 64 57.0182 55.5294 58.4 51.2941Z" fill="white"/>
<path d="M113.424 41.576C109.616 41.576 106.448 40.344 103.92 37.88C101.424 35.416 100.176 32.28 100.176 28.472V7.4H104.448V28.184C104.448 30.936 105.28 33.176 106.944 34.904C108.608 36.6 110.768 37.448 113.424 37.448C116.016 37.448 118.144 36.6 119.808 34.904C121.472 33.176 122.304 30.936 122.304 28.184V7.4H126.576V28.472C126.576 32.28 125.328 35.416 122.832 37.88C120.336 40.344 117.2 41.576 113.424 41.576ZM147.494 14.504C150.534 14.504 152.95 15.528 154.742 17.576C156.566 19.624 157.478 22.264 157.478 25.496V41H153.398V26.456C153.398 24.696 153.126 23.208 152.582 21.992C152.07 20.776 151.286 19.848 150.23 19.208C149.206 18.568 147.942 18.248 146.438 18.248C144.23 18.248 142.374 19.08 140.87 20.744C139.366 22.376 138.614 24.408 138.614 26.84V41H134.534V15.08H137.414L138.23 19.16C138.87 18.168 139.654 17.336 140.582 16.664C141.51 15.96 142.566 15.432 143.75 15.08C144.934 14.696 146.182 14.504 147.494 14.504ZM176.995 41.576C174.435 41.576 172.099 41 169.987 39.848C167.875 38.664 166.227 37.048 165.043 35C163.859 32.92 163.267 30.6 163.267 28.04C163.267 24.136 164.563 20.904 167.155 18.344C169.779 15.784 173.059 14.504 176.995 14.504C179.587 14.504 181.923 15.096 184.003 16.28C186.115 17.432 187.763 19.048 188.947 21.128C190.163 23.176 190.771 25.48 190.771 28.04C190.771 31.912 189.459 35.144 186.835 37.736C184.211 40.296 180.931 41.576 176.995 41.576ZM170.131 34.952C171.955 36.744 174.243 37.64 176.995 37.64C179.779 37.64 182.067 36.744 183.859 34.952C185.683 33.128 186.595 30.824 186.595 28.04C186.595 25.256 185.683 22.968 183.859 21.176C182.067 19.352 179.779 18.44 176.995 18.44C174.243 18.44 171.955 19.352 170.131 21.176C168.339 22.968 167.443 25.256 167.443 28.04C167.443 30.824 168.339 33.128 170.131 34.952ZM209.932 14.504C212.972 14.504 215.388 15.528 217.18 17.576C219.004 19.624 219.916 22.264 219.916 25.496V41H215.836V26.456C215.836 24.696 215.564 23.208 215.02 21.992C214.508 20.776 213.724 19.848 212.668 19.208C211.644 18.568 210.38 18.248 208.876 18.248C206.668 18.248 204.812 19.08 203.308 20.744C201.804 22.376 201.052 24.408 201.052 26.84V41H196.972V15.08H199.852L200.668 19.16C201.308 18.168 202.092 17.336 203.02 16.664C203.948 15.96 205.004 15.432 206.188 15.08C207.372 14.696 208.62 14.504 209.932 14.504ZM252.009 28.136C252.009 28.488 251.977 28.984 251.913 29.624H229.785C230.105 32.024 231.097 33.96 232.761 35.432C234.425 36.872 236.473 37.592 238.905 37.592C240.697 37.592 242.281 37.208 243.657 36.44C245.065 35.64 246.185 34.52 247.017 33.08H251.289C250.201 35.768 248.569 37.864 246.393 39.368C244.217 40.84 241.721 41.576 238.905 41.576C235.161 41.576 232.025 40.28 229.497 37.688C226.969 35.096 225.705 31.88 225.705 28.04C225.705 24.168 226.969 20.952 229.497 18.392C232.025 15.8 235.161 14.504 238.905 14.504C242.777 14.504 245.929 15.816 248.361 18.44C250.793 21.064 252.009 24.296 252.009 28.136ZM238.905 18.392C237.369 18.392 235.961 18.696 234.681 19.304C233.433 19.912 232.393 20.792 231.561 21.944C230.729 23.064 230.169 24.36 229.881 25.832H247.881C247.593 24.328 247.033 23.016 246.201 21.896C245.369 20.744 244.329 19.88 243.081 19.304C241.833 18.696 240.441 18.392 238.905 18.392Z" fill="#0F0D15"/>
<path d="M99.904 76V66.192H96.064V64.8H105.328V66.192H101.488V76H99.904ZM106.847 76V67.52H108.383V76H106.847ZM107.615 65.888C107.316 65.888 107.065 65.792 106.863 65.6C106.671 65.408 106.575 65.1733 106.575 64.896C106.575 64.608 106.671 64.368 106.863 64.176C107.065 63.984 107.316 63.888 107.615 63.888C107.913 63.888 108.159 63.984 108.351 64.176C108.553 64.3573 108.655 64.5867 108.655 64.864C108.655 65.152 108.559 65.3973 108.367 65.6C108.175 65.792 107.924 65.888 107.615 65.888ZM121.923 67.44C122.606 67.44 123.209 67.5733 123.731 67.84C124.254 68.1067 124.659 68.512 124.947 69.056C125.246 69.6 125.395 70.288 125.395 71.12V76H123.859V71.296C123.859 70.4747 123.667 69.856 123.283 69.44C122.899 69.024 122.361 68.816 121.667 68.816C121.155 68.816 120.707 68.9227 120.323 69.136C119.939 69.3493 119.641 69.664 119.427 70.08C119.225 70.496 119.123 71.0133 119.123 71.632V76H117.587V71.296C117.587 70.4747 117.395 69.856 117.011 69.44C116.638 69.024 116.099 68.816 115.395 68.816C114.894 68.816 114.451 68.9227 114.067 69.136C113.683 69.3493 113.385 69.664 113.171 70.08C112.958 70.496 112.851 71.0133 112.851 71.632V76H111.315V67.52H112.787V69.776L112.547 69.2C112.814 68.6453 113.225 68.2133 113.779 67.904C114.334 67.5947 114.979 67.44 115.715 67.44C116.526 67.44 117.225 67.6427 117.811 68.048C118.398 68.4427 118.782 69.0453 118.963 69.856L118.339 69.6C118.595 68.9493 119.043 68.4267 119.683 68.032C120.323 67.6373 121.07 67.44 121.923 67.44ZM131.998 76.096C131.091 76.096 130.291 75.9093 129.598 75.536C128.915 75.1627 128.382 74.6507 127.998 74C127.624 73.3493 127.438 72.6027 127.438 71.76C127.438 70.9173 127.619 70.1707 127.982 69.52C128.355 68.8693 128.862 68.3627 129.502 68C130.152 67.6267 130.883 67.44 131.694 67.44C132.515 67.44 133.24 67.6213 133.87 67.984C134.499 68.3467 134.99 68.8587 135.342 69.52C135.704 70.1707 135.886 70.9333 135.886 71.808C135.886 71.872 135.88 71.9467 135.87 72.032C135.87 72.1173 135.864 72.1973 135.854 72.272H128.638V71.168H135.054L134.43 71.552C134.44 71.008 134.328 70.5227 134.094 70.096C133.859 69.6693 133.534 69.3387 133.118 69.104C132.712 68.8587 132.238 68.736 131.694 68.736C131.16 68.736 130.686 68.8587 130.27 69.104C129.854 69.3387 129.528 69.6747 129.294 70.112C129.059 70.5387 128.942 71.0293 128.942 71.584V71.84C128.942 72.4053 129.07 72.912 129.326 73.36C129.592 73.7973 129.96 74.1387 130.43 74.384C130.899 74.6293 131.438 74.752 132.046 74.752C132.547 74.752 133 74.6667 133.406 74.496C133.822 74.3253 134.184 74.0693 134.494 73.728L135.342 74.72C134.958 75.168 134.478 75.5093 133.902 75.744C133.336 75.9787 132.702 76.096 131.998 76.096ZM142.539 76V64.8H143.851L148.875 73.264H148.171L153.131 64.8H154.443L154.459 76H152.923L152.907 67.216H153.275L148.859 74.64H148.123L143.675 67.216H144.075V76H142.539ZM162.861 76V74.208L162.781 73.872V70.816C162.781 70.1653 162.589 69.664 162.205 69.312C161.831 68.9493 161.266 68.768 160.509 68.768C160.007 68.768 159.517 68.8533 159.037 69.024C158.557 69.184 158.151 69.4027 157.821 69.68L157.181 68.528C157.618 68.176 158.141 67.9093 158.749 67.728C159.367 67.536 160.013 67.44 160.685 67.44C161.847 67.44 162.743 67.7227 163.373 68.288C164.002 68.8533 164.317 69.7173 164.317 70.88V76H162.861ZM160.077 76.096C159.447 76.096 158.893 75.9893 158.413 75.776C157.943 75.5627 157.581 75.2693 157.325 74.896C157.069 74.512 156.941 74.08 156.941 73.6C156.941 73.1413 157.047 72.7253 157.261 72.352C157.485 71.9787 157.842 71.68 158.333 71.456C158.834 71.232 159.506 71.12 160.349 71.12H163.037V72.224H160.413C159.645 72.224 159.127 72.352 158.861 72.608C158.594 72.864 158.461 73.1733 158.461 73.536C158.461 73.952 158.626 74.288 158.957 74.544C159.287 74.7893 159.746 74.912 160.333 74.912C160.909 74.912 161.41 74.784 161.837 74.528C162.274 74.272 162.589 73.8987 162.781 73.408L163.085 74.464C162.882 74.9653 162.525 75.3653 162.013 75.664C161.501 75.952 160.855 76.096 160.077 76.096ZM171.687 67.44C172.38 67.44 172.988 67.5733 173.511 67.84C174.044 68.1067 174.46 68.512 174.759 69.056C175.058 69.6 175.207 70.288 175.207 71.12V76H173.671V71.296C173.671 70.4747 173.468 69.856 173.063 69.44C172.668 69.024 172.108 68.816 171.383 68.816C170.839 68.816 170.364 68.9227 169.959 69.136C169.554 69.3493 169.239 69.664 169.015 70.08C168.802 70.496 168.695 71.0133 168.695 71.632V76H167.159V67.52H168.631V69.808L168.391 69.2C168.668 68.6453 169.095 68.2133 169.671 67.904C170.247 67.5947 170.919 67.44 171.687 67.44ZM183.314 76V74.208L183.234 73.872V70.816C183.234 70.1653 183.042 69.664 182.658 69.312C182.284 68.9493 181.719 68.768 180.962 68.768C180.46 68.768 179.97 68.8533 179.49 69.024C179.01 69.184 178.604 69.4027 178.274 69.68L177.634 68.528C178.071 68.176 178.594 67.9093 179.202 67.728C179.82 67.536 180.466 67.44 181.138 67.44C182.3 67.44 183.196 67.7227 183.826 68.288C184.455 68.8533 184.77 69.7173 184.77 70.88V76H183.314ZM180.53 76.096C179.9 76.096 179.346 75.9893 178.866 75.776C178.396 75.5627 178.034 75.2693 177.778 74.896C177.522 74.512 177.394 74.08 177.394 73.6C177.394 73.1413 177.5 72.7253 177.714 72.352C177.938 71.9787 178.295 71.68 178.786 71.456C179.287 71.232 179.959 71.12 180.802 71.12H183.49V72.224H180.866C180.098 72.224 179.58 72.352 179.314 72.608C179.047 72.864 178.914 73.1733 178.914 73.536C178.914 73.952 179.079 74.288 179.41 74.544C179.74 74.7893 180.199 74.912 180.786 74.912C181.362 74.912 181.863 74.784 182.29 74.528C182.727 74.272 183.042 73.8987 183.234 73.408L183.538 74.464C183.335 74.9653 182.978 75.3653 182.466 75.664C181.954 75.952 181.308 76.096 180.53 76.096ZM191.324 79.2C190.546 79.2 189.788 79.088 189.052 78.864C188.327 78.6507 187.735 78.3413 187.276 77.936L188.012 76.752C188.407 77.0933 188.892 77.36 189.468 77.552C190.044 77.7547 190.647 77.856 191.276 77.856C192.279 77.856 193.015 77.6213 193.484 77.152C193.954 76.6827 194.188 75.968 194.188 75.008V73.216L194.348 71.536L194.268 69.84V67.52H195.724V74.848C195.724 76.3413 195.351 77.44 194.604 78.144C193.858 78.848 192.764 79.2 191.324 79.2ZM191.132 75.648C190.311 75.648 189.575 75.4773 188.924 75.136C188.284 74.784 187.772 74.2987 187.388 73.68C187.015 73.0613 186.828 72.3467 186.828 71.536C186.828 70.7147 187.015 70 187.388 69.392C187.772 68.7733 188.284 68.2933 188.924 67.952C189.575 67.6107 190.311 67.44 191.132 67.44C191.858 67.44 192.519 67.5893 193.116 67.888C193.714 68.176 194.188 68.624 194.54 69.232C194.903 69.84 195.084 70.608 195.084 71.536C195.084 72.4533 194.903 73.216 194.54 73.824C194.188 74.432 193.714 74.8907 193.116 75.2C192.519 75.4987 191.858 75.648 191.132 75.648ZM191.308 74.304C191.874 74.304 192.375 74.1867 192.812 73.952C193.25 73.7173 193.591 73.392 193.836 72.976C194.092 72.56 194.22 72.08 194.22 71.536C194.22 70.992 194.092 70.512 193.836 70.096C193.591 69.68 193.25 69.36 192.812 69.136C192.375 68.9013 191.874 68.784 191.308 68.784C190.743 68.784 190.236 68.9013 189.788 69.136C189.351 69.36 189.004 69.68 188.748 70.096C188.503 70.512 188.38 70.992 188.38 71.536C188.38 72.08 188.503 72.56 188.748 72.976C189.004 73.392 189.351 73.7173 189.788 73.952C190.236 74.1867 190.743 74.304 191.308 74.304ZM202.435 76.096C201.528 76.096 200.728 75.9093 200.035 75.536C199.352 75.1627 198.819 74.6507 198.435 74C198.062 73.3493 197.875 72.6027 197.875 71.76C197.875 70.9173 198.056 70.1707 198.419 69.52C198.792 68.8693 199.299 68.3627 199.939 68C200.59 67.6267 201.32 67.44 202.131 67.44C202.952 67.44 203.678 67.6213 204.307 67.984C204.936 68.3467 205.427 68.8587 205.779 69.52C206.142 70.1707 206.323 70.9333 206.323 71.808C206.323 71.872 206.318 71.9467 206.307 72.032C206.307 72.1173 206.302 72.1973 206.291 72.272H199.075V71.168H205.491L204.867 71.552C204.878 71.008 204.766 70.5227 204.531 70.096C204.296 69.6693 203.971 69.3387 203.555 69.104C203.15 68.8587 202.675 68.736 202.131 68.736C201.598 68.736 201.123 68.8587 200.707 69.104C200.291 69.3387 199.966 69.6747 199.731 70.112C199.496 70.5387 199.379 71.0293 199.379 71.584V71.84C199.379 72.4053 199.507 72.912 199.763 73.36C200.03 73.7973 200.398 74.1387 200.867 74.384C201.336 74.6293 201.875 74.752 202.483 74.752C202.984 74.752 203.438 74.6667 203.843 74.496C204.259 74.3253 204.622 74.0693 204.931 73.728L205.779 74.72C205.395 75.168 204.915 75.5093 204.339 75.744C203.774 75.9787 203.139 76.096 202.435 76.096ZM219.064 67.44C219.747 67.44 220.349 67.5733 220.872 67.84C221.395 68.1067 221.8 68.512 222.088 69.056C222.387 69.6 222.536 70.288 222.536 71.12V76H221V71.296C221 70.4747 220.808 69.856 220.424 69.44C220.04 69.024 219.501 68.816 218.808 68.816C218.296 68.816 217.848 68.9227 217.464 69.136C217.08 69.3493 216.781 69.664 216.568 70.08C216.365 70.496 216.264 71.0133 216.264 71.632V76H214.728V71.296C214.728 70.4747 214.536 69.856 214.152 69.44C213.779 69.024 213.24 68.816 212.536 68.816C212.035 68.816 211.592 68.9227 211.208 69.136C210.824 69.3493 210.525 69.664 210.312 70.08C210.099 70.496 209.992 71.0133 209.992 71.632V76H208.456V67.52H209.928V69.776L209.688 69.2C209.955 68.6453 210.365 68.2133 210.92 67.904C211.475 67.5947 212.12 67.44 212.856 67.44C213.667 67.44 214.365 67.6427 214.952 68.048C215.539 68.4427 215.923 69.0453 216.104 69.856L215.48 69.6C215.736 68.9493 216.184 68.4267 216.824 68.032C217.464 67.6373 218.211 67.44 219.064 67.44ZM229.138 76.096C228.232 76.096 227.432 75.9093 226.738 75.536C226.056 75.1627 225.522 74.6507 225.138 74C224.765 73.3493 224.578 72.6027 224.578 71.76C224.578 70.9173 224.76 70.1707 225.122 69.52C225.496 68.8693 226.002 68.3627 226.642 68C227.293 67.6267 228.024 67.44 228.834 67.44C229.656 67.44 230.381 67.6213 231.01 67.984C231.64 68.3467 232.13 68.8587 232.482 69.52C232.845 70.1707 233.026 70.9333 233.026 71.808C233.026 71.872 233.021 71.9467 233.01 72.032C233.01 72.1173 233.005 72.1973 232.994 72.272H225.778V71.168H232.194L231.57 71.552C231.581 71.008 231.469 70.5227 231.234 70.096C231 69.6693 230.674 69.3387 230.258 69.104C229.853 68.8587 229.378 68.736 228.834 68.736C228.301 68.736 227.826 68.8587 227.41 69.104C226.994 69.3387 226.669 69.6747 226.434 70.112C226.2 70.5387 226.082 71.0293 226.082 71.584V71.84C226.082 72.4053 226.21 72.912 226.466 73.36C226.733 73.7973 227.101 74.1387 227.57 74.384C228.04 74.6293 228.578 74.752 229.186 74.752C229.688 74.752 230.141 74.6667 230.546 74.496C230.962 74.3253 231.325 74.0693 231.634 73.728L232.482 74.72C232.098 75.168 231.618 75.5093 231.042 75.744C230.477 75.9787 229.842 76.096 229.138 76.096ZM239.687 67.44C240.38 67.44 240.988 67.5733 241.511 67.84C242.044 68.1067 242.46 68.512 242.759 69.056C243.058 69.6 243.207 70.288 243.207 71.12V76H241.671V71.296C241.671 70.4747 241.468 69.856 241.063 69.44C240.668 69.024 240.108 68.816 239.383 68.816C238.839 68.816 238.364 68.9227 237.959 69.136C237.554 69.3493 237.239 69.664 237.015 70.08C236.802 70.496 236.695 71.0133 236.695 71.632V76H235.159V67.52H236.631V69.808L236.391 69.2C236.668 68.6453 237.095 68.2133 237.671 67.904C238.247 67.5947 238.919 67.44 239.687 67.44ZM248.962 76.096C248.108 76.096 247.447 75.8667 246.978 75.408C246.508 74.9493 246.274 74.2933 246.274 73.44V65.664H247.81V73.376C247.81 73.8347 247.922 74.1867 248.146 74.432C248.38 74.6773 248.711 74.8 249.138 74.8C249.618 74.8 250.018 74.6667 250.338 74.4L250.818 75.504C250.583 75.7067 250.3 75.856 249.97 75.952C249.65 76.048 249.314 76.096 248.962 76.096ZM244.834 68.784V67.52H250.242V68.784H244.834Z" fill="#0F0D15"/>
<defs>
<linearGradient id="paint0_linear_291_18618" x1="40" y1="0" x2="40" y2="80" gradientUnits="userSpaceOnUse">
<stop stop-color="#1E88FF"/>
<stop offset="1" stop-color="#2873D7"/>
</linearGradient>
<linearGradient id="paint1_linear_291_18618" x1="21.6" y1="17.3381" x2="81.2469" y2="91.8998" gradientUnits="userSpaceOnUse">
<stop offset="0.148667" stop-color="white"/>
<stop offset="0.739583" stop-color="#C6C5C9"/>
</linearGradient>
</defs>
</svg>
